<svg xmlns="http://www.w3.org/2000/svg"
     viewBox="0 0 1307 672">
  <path id="Импортированный контур"
        fill="black" fill-opacity="0.5"
        d="M 332.60,109.80
           C 332.60,109.80 332.60,397.50 332.60,397.50
             332.60,397.50 411.70,397.50 411.70,397.50
             411.70,397.50 411.70,468.20 411.70,468.20
             411.70,468.20 332.60,468.20 332.60,468.20
             332.60,468.20 332.60,569.00 332.60,569.00
             332.60,569.00 250.70,569.00 250.70,569.00
             250.70,569.00 250.70,468.20 250.70,468.20
             250.70,468.20 20.40,468.20 20.40,468.20
             20.40,468.20 20.40,405.90 20.40,405.90
             20.40,405.90 252.80,109.80 252.80,109.80
             252.80,109.80 332.60,109.80 332.60,109.80 Z
           M 118.40,405.90
           C 118.40,405.90 254.90,405.90 254.90,405.90
             254.90,405.90 254.90,232.30 254.90,232.30
             254.90,232.30 118.40,405.90 118.40,405.90 Z
           M 646.51,105.60
           C 674.51,105.60 699.94,110.50 722.81,120.30
             746.14,129.63 765.98,144.10 782.31,163.70
             817.78,205.23 835.51,264.73 835.51,342.20
             835.51,419.67 817.78,479.17 782.31,520.70
             749.64,559.43 704.61,578.80 647.21,578.80
             589.34,578.80 543.84,559.43 510.71,520.70
             475.71,480.10 458.21,420.60 458.21,342.20
             458.21,263.80 475.71,204.30 510.71,163.70
             543.84,124.97 589.11,105.60 646.51,105.60 Z
           M 750.11,342.20
           C 750.11,289.93 741.01,250.03 722.81,222.50
             705.08,194.50 679.64,180.50 646.51,180.50
             613.84,180.50 588.41,194.50 570.21,222.50
             552.48,250.03 543.61,289.93 543.61,342.20
             543.61,394.47 552.48,434.37 570.21,461.90
             588.41,488.97 613.84,502.50 646.51,502.50
             679.64,502.50 705.08,488.97 722.81,461.90
             741.01,434.37 750.11,394.47 750.11,342.20 Z
           M 1199.88,109.80
           C 1199.88,109.80 1199.88,397.50 1199.88,397.50
             1199.88,397.50 1278.98,397.50 1278.98,397.50
             1278.98,397.50 1278.98,468.20 1278.98,468.20
             1278.98,468.20 1199.88,468.20 1199.88,468.20
             1199.88,468.20 1199.88,569.00 1199.88,569.00
             1199.88,569.00 1117.98,569.00 1117.98,569.00
             1117.98,569.00 1117.98,468.20 1117.98,468.20
             1117.98,468.20 887.68,468.20 887.68,468.20
             887.68,468.20 887.68,405.90 887.68,405.90
             887.68,405.90 1120.08,109.80 1120.08,109.80
             1120.08,109.80 1199.88,109.80 1199.88,109.80 Z
           M 985.68,405.90
           C 985.68,405.90 1122.18,405.90 1122.18,405.90
             1122.18,405.90 1122.18,232.30 1122.18,232.30
             1122.18,232.30 985.68,405.90 985.68,405.90 Z" />
</svg>